:FULLY-SPECIFIED
:FORCE-ALL-JOINTS-BE-3DOF
:DEGREES
114
root 9.34952 16.1688 -21.2486 4.27654 4.143 4.66856
lfemur 14.2885 0.489819 -28.6929
ltibia -0.167267 0 0
lfoot -14.3894 2.30336 0
ltoes -2.93973 0 0
rfemur -40.7033 12.2737 6.62695
rtibia 28.0742 0 0
rfoot -23.5393 -9.65192 0
rtoes -19.2347 0 0
lowerback -8.15531 -3.32947 -5.67709
upperback -1.00725 -4.01806 2.31314
thorax 4.08148 -2.10691 5.13026
lowerneck -19.327 -5.18247 -13.2941
upperneck 21.327 -5.9567 10.8799
head 10.8111 -2.55218 5.27677
lclavicle 7.52253e-15 2.48665e-15 0
lhumerus -25.5425 -26.7533 93.0836
lradius 42.6021 0 0
lwrist 12.9669 0 0
lhand -12.6922 -25.2246 0
lfingers 7.12502 0 0
lthumb 13.3899 4.32491 0
rclavicle 7.52253e-15 2.48665e-15 0
rhumerus -46.4559 9.06435 -84.1919
rradius 35.2294 0 0
rwrist -19.1131 0 0
rhand -29.3398 -23.2881 0
rfingers 7.12502 0 0
rthumb -2.67994 -53.2509 0
115
root 9.35402 16.1749 -21.3024 4.23169 4.03138 4.63309
lfemur 14.0368 0.472366 -28.7253
ltibia 1.59028e-14 0 0
lfoot -14.3807 2.42559 0
ltoes -2.85137 0 0
rfemur -40.5964 12.2383 6.76713
rtibia 28.2368 0 0
rfoot -23.451 -9.44436 0
rtoes -19.0088 0 0
lowerback -8.14713 -3.307 -5.6302
upperback -0.9908 -3.99267 2.31486
thorax 4.08787 -2.09412 5.10896
lowerneck -19.3289 -5.17902 -13.265
upperneck 21.3105 -5.95092 10.8474
head 10.8023 -2.55068 5.25973
lclavicle 1.08213e-14 3.18055e-15 0
lhumerus -25.3625 -26.7335 92.9123
lradius 42.6137 0 0
lwrist 13.0172 0 0
lhand -12.7579 -25.2959 0
lfingers 7.12502 0 0
lthumb 13.3266 4.25797 0
rclavicle 1.08213e-14 3.18055e-15 0
rhumerus -46.3924 9.13805 -84.2543
rradius 35.2817 0 0
rwrist -19.1783 0 0
rhand -29.3331 -23.3051 0
rfingers 7.12502 0 0
rthumb -2.67343 -53.2681 0
116
root 9.33917 16.1552 -21.1253 4.37472 4.41165 4.73745
lfemur 14.5738 0.520248 -28.6078
ltibia 1.84134e-14 0 0
lfoot -14.6401 2.07352 0
ltoes -3.03205 0 0
rfemur -40.9746 12.4879 6.22458
rtibia 27.782 0 0
rfoot -23.8044 -10.1553 0
rtoes -19.3491 0 0
lowerback -8.21412 -3.37715 -5.73243
upperback -1.01256 -4.0722 2.28553
thorax 4.11851 -2.13515 5.12249
lowerneck -19.2815 -5.21001 -13.331
upperneck 21.2759 -6.00136 10.9371
head 10.7933 -2.5698 5.29601
lclavicle 6.42673e-15 7.21516e-16 0
lhumerus -25.9176 -26.8332 93.4321
lradius 42.5612 0 0
lwrist 12.855 0 0
lhand -12.4617 -25.1451 0
lfingers 7.12502 0 0
lthumb 13.6121 4.3901 0
rclavicle 6.42673e-15 7.21516e-16 0
rhumerus -46.492 8.77956 -83.9928
rradius 35.0397 0 0
rwrist -19.0045 0 0
rhand -29.2774 -23.1355 0
rfingers 7.12502 0 0
rthumb -2.6196 -53.0992 0
117
root 9.31794 16.1286 -20.8995 4.56771 4.86703 4.88703
lfemur 15.2534 0.594559 -28.4497
ltibia 1.92011e-14 0 0
lfoot -14.9117 1.599 0
ltoes -3.39649 0 0
rfemur -41.3775 12.5761 5.67772
rtibia 27.3379 0 0
rfoot -24.1842 -11.0878 0
rtoes -19.9555 0 0
lowerback -8.26937 -3.46429 -5.88803
upperback -1.04721 -4.16974 2.24637
thorax 4.13478 -2.18514 5.15395
lowerneck -19.2607 -5.24162 -13.4249
upperneck 21.255 -6.0536 11.0734
head 10.7974 -2.58609 5.355
lclavicle -3.58671e-15 -2.621e-15 0
lhumerus -26.6499 -26.8652 94.1029
lradius 42.3533 0 0
lwrist 12.548 0 0
lhand -12.1417 -24.8996 0
lfingers 7.12502 0 0
lthumb 13.9205 4.61465 0
rclavicle -3.58671e-15 -2.621e-15 0
rhumerus -46.6541 8.36532 -83.7087
rradius 34.7694 0 0
rwrist -18.7953 0 0
rhand -29.2773 -22.9541 0
rfingers 7.12502 0 0
rthumb -2.61954 -52.9178 0
118
root 9.29568 16.1011 -20.6728 4.76567 5.3124 5.0439
lfemur 15.9354 0.674844 -28.2873
ltibia 1.8487e-14 0 0
lfoot -15.1681 1.10879 0
ltoes -3.81456 0 0
rfemur -41.7494 12.5691 5.18637
rtibia 26.9468 0 0
rfoot -24.5465 -12.0643 0
rtoes -20.6803 0 0
lowerback -8.31053 -3.5501 -6.05478
upperback -1.0858 -4.26517 2.2062
thorax 4.13953 -2.23385 5.19156
lowerneck -19.2559 -5.26983 -13.5292
upperneck 21.2458 -6.10092 11.2267
head 10.8092 -2.59874 5.42342
lclavicle -1.6262e-14 -6.1623e-15 0
lhumerus -27.3999 -26.863 94.7846
lradius 42.089 0 0
lwrist 12.1979 0 0
lhand -11.8457 -24.6207 0
lfingers 7.12502 0 0
lthumb 14.2056 4.87374 0
rclavicle -1.6262e-14 -6.1623e-15 0
rhumerus -46.8367 7.96652 -83.4429
rradius 34.518 0 0
rwrist -18.5796 0 0
rhand -29.3031 -22.7958 0
rfingers 7.12502 0 0
rthumb -2.64444 -52.759 0
119
root 9.27774 16.0789 -20.4931 4.92359 5.66263 5.17013
lfemur 16.4796 0.740649 -28.1568
ltibia 1.64918e-14 0 0
lfoot -15.382 0.709688 0
ltoes -4.15613 0 0
rfemur -42.0345 12.5333 4.81034
rtibia 26.6511 0 0
rfoot -24.8471 -12.9072 0
rtoes -21.3756 0 0
lowerback -8.33527 -3.61622 -6.19044
upperback -1.11934 -4.33839 2.17385
thorax 4.1356 -2.27102 5.22355
lowerneck -19.2568 -5.29064 -13.6265
upperneck 21.2461 -6.13663 11.3673
head 10.8231 -2.60692 5.48802
lclavicle -2.86421e-14 -9.21769e-15 0
lhumerus -28.0083 -26.8602 95.3372
lradius 41.8673 0 0
lwrist 11.9064 0 0
lhand -11.6219 -24.3697 0
lfingers 7.12502 0 0
lthumb 14.4213 5.10947 0
rclavicle -2.86421e-14 -9.21769e-15 0
rhumerus -46.9978 7.65434 -83.2362
rradius 34.3329 0 0
rwrist -18.3861 0 0
rhand -29.3249 -22.6954 0
rfingers 7.12502 0 0
rthumb -2.66552 -52.6582 0
120
root 9.26944 16.0679 -20.408 4.99648 5.83259 5.2278
lfemur 16.7458 0.771518 -28.0942
ltibia 1.34364e-14 0 0
lfoot -15.5259 0.508466 0
ltoes -4.2911 0 0
rfemur -42.1773 12.535 4.60942
rtibia 26.4933 0 0
rfoot -25.0421 -13.4388 0
rtoes -21.8937 0 0
lowerback -8.34125 -3.64431 -6.25279
upperback -1.13887 -4.36929 2.15813
thorax 4.12583 -2.28639 5.23813
lowerneck -19.2527 -5.30003 -13.6994
upperneck 21.2541 -6.15401 11.4656
head 10.8339 -2.60982 5.53553
lclavicle -3.777e-14 -1.11025e-14 0
lhumerus -28.3158 -26.8904 95.6204
lradius 41.7872 0 0
lwrist 11.7752 0 0
lhand -11.5179 -24.208 0
lfingers 7.12502 0 0
lthumb 14.5215 5.26395 0
rclavicle -3.777e-14 -1.11025e-14 0
rhumerus -47.0957 7.49999 -83.1293
rradius 34.2617 0 0
rwrist -18.2437 0 0
rhand -29.313 -22.6878 0
rfingers 7.12502 0 0
rthumb -2.65397 -52.6508 0
121
root 9.27614 16.0741 -20.4655 4.93934 5.73716 5.17897
lfemur 16.5939 0.746996 -28.136
ltibia 9.54166e-15 0 0
lfoot -15.5726 0.611905 0
ltoes -4.08932 0 0
rfemur -42.1218 12.6405 4.64343
rtibia 26.5158 0 0
rfoot -25.0874 -13.4816 0
rtoes -22.0868 0 0
lowerback -8.32613 -3.61604 -6.1996
upperback -1.13543 -4.33775 2.16786
thorax 4.11306 -2.26971 5.22353
lowerneck -19.2332 -5.29399 -13.7304
upperneck 21.2675 -6.14636 11.492
head 10.8361 -2.60661 5.55268
lclavicle -4.06887e-14 -1.11319e-14 0
lhumerus -28.163 -26.9871 95.4942
lradius 41.9478 0 0
lwrist 11.906 0 0
lhand -11.5818 -24.1969 0
lfingers 7.12502 0 0
lthumb 14.4599 5.27929 0
rclavicle -4.06887e-14 -1.11319e-14 0
rhumerus -47.0884 7.57466 -83.1631
rradius 34.3516 0 0
rwrist -18.181 0 0
rhand -29.2374 -22.8079 0
rfingers 7.12502 0 0
rthumb -2.58101 -52.772 0
